<svg xmlns="http://www.w3.org/2000/svg" xmlns:xlink="http://www.w3.org/1999/xlink" width="2000" zoomAndPan="magnify" viewBox="0 0 1500 1499.999933" height="2000" preserveAspectRatio="xMidYMid meet" version="1.0"><defs><clipPath id="b6250f4069"><path d="M 111 79 L 1185 79 L 1185 1062 L 111 1062 Z M 111 79 " clip-rule="nonzero"/></clipPath><clipPath id="d237cecd7b"><path d="M -138.445312 591.621094 L 805.625 -168.296875 L 1184.84375 302.816406 L 240.773438 1062.734375 Z M -138.445312 591.621094 " clip-rule="nonzero"/></clipPath><clipPath id="7629662526"><path d="M 1184.84375 302.816406 C 978.289062 46.207031 591.117188 4.367188 334.507812 210.921875 C 77.898438 417.476562 36.058594 804.644531 242.613281 1061.253906 L 504.203125 850.6875 C 412.34375 736.566406 430.949219 564.375 545.074219 472.511719 C 659.199219 380.648438 831.386719 399.257812 923.25 513.382812 Z M 1184.84375 302.816406 " clip-rule="nonzero"/></clipPath><clipPath id="a161f12e41"><path d="M 0 0 L 1073.878906 0 L 1073.878906 982.28125 L 0 982.28125 Z M 0 0 " clip-rule="nonzero"/></clipPath><clipPath id="eba454efaf"><path d="M -249.445312 512.621094 L 694.625 -247.296875 L 1073.84375 223.816406 L 129.773438 983.734375 Z M -249.445312 512.621094 " clip-rule="nonzero"/></clipPath><clipPath id="211c8e0317"><path d="M 1073.84375 223.816406 C 867.289062 -32.792969 480.117188 -74.632812 223.507812 131.921875 C -33.101562 338.476562 -74.941406 725.644531 131.613281 982.253906 L 393.203125 771.6875 C 301.34375 657.566406 319.949219 485.375 434.074219 393.511719 C 548.199219 301.648438 720.386719 320.257812 812.25 434.382812 Z M 1073.84375 223.816406 " clip-rule="nonzero"/></clipPath><clipPath id="f0c3a9ba2e"><rect x="0" width="1074" y="0" height="983"/></clipPath><clipPath id="9154269f83"><path d="M 270 333 L 1345 333 L 1345 1316 L 270 1316 Z M 270 333 " clip-rule="nonzero"/></clipPath><clipPath id="8aae2fea1c"><path d="M 1593.894531 803.503906 L 649.824219 1563.421875 L 270.605469 1092.308594 L 1214.679688 332.390625 Z M 1593.894531 803.503906 " clip-rule="nonzero"/></clipPath><clipPath id="77411d337a"><path d="M 270.605469 1092.308594 C 477.160156 1348.917969 864.332031 1390.757812 1120.941406 1184.207031 C 1377.550781 977.652344 1419.390625 590.480469 1212.835938 333.871094 L 951.246094 544.4375 C 1043.109375 658.5625 1024.5 830.75 910.375 922.613281 C 796.25 1014.476562 624.0625 995.867188 532.199219 881.742188 Z M 270.605469 1092.308594 " clip-rule="nonzero"/></clipPath><clipPath id="b45533122b"><path d="M 0.480469 0.839844 L 1075 0.839844 L 1075 983 L 0.480469 983 Z M 0.480469 0.839844 " clip-rule="nonzero"/></clipPath><clipPath id="b03d3fea24"><path d="M 1323.894531 470.503906 L 379.824219 1230.421875 L 0.605469 759.308594 L 944.679688 -0.609375 Z M 1323.894531 470.503906 " clip-rule="nonzero"/></clipPath><clipPath id="554c68406b"><path d="M 0.605469 759.308594 C 207.160156 1015.917969 594.332031 1057.757812 850.941406 851.207031 C 1107.550781 644.652344 1149.390625 257.480469 942.835938 0.871094 L 681.246094 211.4375 C 773.109375 325.5625 754.5 497.75 640.375 589.613281 C 526.25 681.476562 354.0625 662.867188 262.199219 548.742188 Z M 0.605469 759.308594 " clip-rule="nonzero"/></clipPath><clipPath id="99ba795fb4"><rect x="0" width="1075" y="0" height="983"/></clipPath><clipPath id="6ecfe06b81"><path d="M 436 952 L 1315 952 L 1315 1430 L 436 1430 Z M 436 952 " clip-rule="nonzero"/></clipPath><clipPath id="a4e0d532c9"><path d="M 532.804688 883.707031 L 1336.757812 1192.980469 L 1219.113281 1498.796875 L 415.160156 1189.519531 Z M 532.804688 883.707031 " clip-rule="nonzero"/></clipPath><clipPath id="b7562344e4"><path d="M 914.695312 1098.636719 C 1068.707031 1100.835938 1219.6875 1101.867188 1314.789062 1248.160156 L 1244.9375 1429.738281 C 1143.820312 1285.519531 987.554688 1284.648438 836.574219 1283.613281 C 682.5625 1281.417969 531.582031 1280.382812 436.480469 1134.089844 L 506.332031 952.511719 C 607.449219 1096.734375 763.714844 1097.605469 914.695312 1098.636719 Z M 914.695312 1098.636719 " clip-rule="nonzero"/></clipPath><clipPath id="3873e7f653"><path d="M 0.320312 0.320312 L 878.960938 0.320312 L 878.960938 477.917969 L 0.320312 477.917969 Z M 0.320312 0.320312 " clip-rule="nonzero"/></clipPath><clipPath id="eb5c01de34"><path d="M 96.804688 -68.292969 L 900.757812 240.980469 L 783.113281 546.796875 L -20.839844 237.519531 Z M 96.804688 -68.292969 " clip-rule="nonzero"/></clipPath><clipPath id="bae9df07e3"><path d="M 478.695312 146.636719 C 632.707031 148.835938 783.6875 149.867188 878.789062 296.160156 L 808.9375 477.738281 C 707.820312 333.519531 551.554688 332.648438 400.574219 331.613281 C 246.5625 329.417969 95.582031 328.382812 0.480469 182.089844 L 70.332031 0.511719 C 171.449219 144.734375 327.714844 145.605469 478.695312 146.636719 Z M 478.695312 146.636719 " clip-rule="nonzero"/></clipPath><clipPath id="a90f920ac7"><rect x="0" width="879" y="0" height="478"/></clipPath></defs><g clip-path="url(#b6250f4069)"><g clip-path="url(#d237cecd7b)"><g clip-path="url(#7629662526)"><g transform="matrix(1, 0, 0, 1, 111, 79)"><g clip-path="url(#f0c3a9ba2e)"><g clip-path="url(#a161f12e41)"><g clip-path="url(#eba454efaf)"><g clip-path="url(#211c8e0317)"><path fill="#0047ff" d="M -247.605469 511.136719 L 694.625 -247.296875 L 1073.84375 223.816406 L 131.613281 982.253906 Z M -247.605469 511.136719 " fill-opacity="1" fill-rule="nonzero"/></g></g></g></g></g></g></g></g><g clip-path="url(#9154269f83)"><g clip-path="url(#8aae2fea1c)"><g clip-path="url(#77411d337a)"><g transform="matrix(1, 0, 0, 1, 270, 333)"><g clip-path="url(#99ba795fb4)"><g clip-path="url(#b45533122b)"><g clip-path="url(#b03d3fea24)"><g clip-path="url(#554c68406b)"><path fill="#0047ff" d="M 1322.054688 471.988281 L 379.824219 1230.421875 L 0.605469 759.308594 L 942.835938 0.871094 Z M 1322.054688 471.988281 " fill-opacity="1" fill-rule="nonzero"/></g></g></g></g></g></g></g></g><g clip-path="url(#6ecfe06b81)"><g clip-path="url(#a4e0d532c9)"><g clip-path="url(#b7562344e4)"><g transform="matrix(1, 0, 0, 1, 436, 952)"><g clip-path="url(#a90f920ac7)"><g clip-path="url(#3873e7f653)"><g clip-path="url(#eb5c01de34)"><g clip-path="url(#bae9df07e3)"><path fill="#0047ff" d="M 96.804688 -68.292969 L 899.5625 240.523438 L 781.917969 546.335938 L -20.839844 237.519531 Z M 96.804688 -68.292969 " fill-opacity="1" fill-rule="nonzero"/></g></g></g></g></g></g></g></g></svg>